<svg width="559" height="214" viewBox="0 0 559 214" fill="none" xmlns="http://www.w3.org/2000/svg">
<path d="M389.542 116.505C464 91.5315 513 46.5 549 -12H-15V208C19.2903 207.184 41.8024 207.25 75.6413 193.918C89.1441 186.655 126.273 169.234 164.967 153C202.527 137.242 269.877 130.472 298.658 129.79C338.773 128.368 359.89 126.45 389.542 116.505Z" stroke="#4AA0CB" stroke-width="11"/>
<path d="M379.437 105.813C443.173 84.3469 494.751 42.6613 525.5 -4H-4V196C28.1624 195.303 49.261 187.393 81 176C93.6648 169.794 128.506 150.872 164.799 137C200.028 123.534 263.198 117.748 290.193 117.166C328.07 114.81 351.679 114.07 379.437 105.813Z" fill="#4AA0CB"/>
</svg>
