<svg width="409" height="143" viewBox="0 0 409 143" fill="none" xmlns="http://www.w3.org/2000/svg">
<path opacity="0.74" d="M290.109 64.4836C341.988 79.832 383.971 109.637 409 143H-22V0C4.17938 0.498474 21.3531 6.15431 47.1879 14.3C57.4968 18.7374 85.8568 32.2662 115.398 42.185C144.073 51.8129 195.493 55.9498 217.466 56.3665C248.297 58.0512 267.514 58.5798 290.109 64.4836Z" fill="#FAF5F1"/>
<path opacity="0.48" d="M282.315 74.3668C329.74 87.7832 368.119 113.837 391 143H-3V18C20.932 18.4357 36.6314 23.3796 60.2483 30.5C69.6722 34.3788 95.5976 46.2047 122.603 54.875C148.817 63.291 195.822 66.9072 215.909 67.2714C244.093 68.744 261.66 69.2061 282.315 74.3668Z" fill="#E7DED8"/>
<path opacity="0.74" d="M269.28 81.5047C314.539 93.5257 351.165 116.87 373 143H-3V31C19.8386 31.3904 34.8208 35.8202 57.3588 42.2C66.3522 45.6754 91.0932 56.2715 116.865 64.04C141.881 71.5807 186.738 74.8209 205.908 75.1472C232.804 76.4666 249.569 76.8807 269.28 81.5047Z" fill="#FFFBF8"/>
</svg>
