<svg width="185" height="184" viewBox="0 0 185 184" fill="none" xmlns="http://www.w3.org/2000/svg">
<path d="M74.134 181.983L82.5586 169.12L83.2961 161.867L87.4746 162.292L86.7371 169.545L92.4296 183.844L87.7139 183.364L84.2052 173.388L78.79 182.457L74.134 181.983Z" fill="#FFA242"/>
<path d="M71.1986 158.914C73.0687 159.501 74.6484 160.479 75.9378 161.847C77.2272 163.216 78.0874 164.817 78.5184 166.65C78.9434 168.502 78.8475 170.411 78.2309 172.377C77.6202 174.323 76.6143 175.925 75.2134 177.184C73.8065 178.461 72.1829 179.293 70.3427 179.68C68.5025 180.067 66.6473 179.967 64.7772 179.38C62.888 178.788 61.3083 177.81 60.038 176.447C58.7486 175.078 57.901 173.471 57.495 171.625C57.064 169.792 57.1539 167.902 57.7646 165.955C58.3813 163.99 59.3931 162.368 60.8 161.091C62.1819 159.827 63.7929 159.001 65.6331 158.614C67.4733 158.227 69.3284 158.327 71.1986 158.914ZM70.0759 162.492C68.8737 162.115 67.7308 162.05 66.6472 162.297C65.5576 162.563 64.5965 163.121 63.7639 163.97C62.9314 164.82 62.3056 165.913 61.8864 167.249C61.4673 168.584 61.3597 169.829 61.5636 170.983C61.7615 172.156 62.2347 173.154 62.983 173.975C63.7313 174.797 64.7066 175.396 65.9088 175.774C67.111 176.151 68.2635 176.219 69.3662 175.978C70.4498 175.731 71.4079 175.183 72.2405 174.333C73.067 173.502 73.6899 172.419 74.109 171.083C74.5281 169.748 74.6387 168.493 74.4408 167.32C74.2429 166.147 73.7727 165.14 73.0304 164.299C72.263 163.472 71.2782 162.869 70.0759 162.492Z" fill="#FFA242"/>
<path d="M51.6711 173.823L57.9606 162.491C58.6497 161.25 58.8552 160.117 58.577 159.094C58.2891 158.087 57.5593 157.259 56.3877 156.609C55.1986 155.949 54.101 155.763 53.0948 156.051C52.079 156.356 51.2265 157.13 50.5374 158.371L44.2479 169.703L40.5494 167.65L46.8243 156.345C47.6882 154.788 48.762 153.657 50.0457 152.952C51.3023 152.254 52.6494 151.949 54.0869 152.038C55.507 152.117 56.9077 152.54 58.2892 153.307C59.6532 154.064 60.7443 155.024 61.5626 156.187C62.3634 157.341 62.7912 158.631 62.8462 160.056C62.8914 161.5 62.4821 163 61.6183 164.556L55.3433 175.861L51.6711 173.823Z" fill="#FFA242"/>
<path d="M44.2797 143.376L42.47 152.577L43.9723 153.867L49.2875 147.675L52.4743 150.411L38.8346 166.3L32.8707 161.18C31.6415 160.125 30.7833 159.006 30.2961 157.823C29.7959 156.656 29.6525 155.518 29.866 154.409C30.0512 153.303 30.5347 152.295 31.3163 151.384C32.2152 150.337 33.3329 149.649 34.6695 149.321C35.993 149.007 37.391 149.205 38.8634 149.916L40.5921 140.211L44.2797 143.376ZM41.9205 156.257L39.2572 153.971C38.3923 153.228 37.5714 152.879 36.7948 152.924C36.0051 152.984 35.2911 153.386 34.6528 154.13C34.0275 154.858 33.7579 155.602 33.8441 156.361C33.9172 157.136 34.3863 157.894 35.2513 158.637L37.9145 160.923L41.9205 156.257Z" fill="#FFA242"/>
<path d="M6.67346 124.261L25.4735 115.04L27.3231 118.81L19.3237 122.734L23.274 130.788L31.2735 126.864L33.1231 130.634L14.3231 139.856L12.4735 136.085L20.2035 132.294L16.2532 124.24L8.52312 128.032L6.67346 124.261Z" fill="#FFA242"/>
<path d="M7.95439 115.879L13.0368 114.563L11.2697 107.738L14.4934 106.903L16.2605 113.728L21.6333 112.337L19.6406 104.641L22.9515 103.783L25.9969 115.546L5.69631 120.802L2.65088 109.04L5.96171 108.182L7.95439 115.879Z" fill="#FFA242"/>
<path d="M18.1498 91.4722L18.5722 99.8015L22.6269 100.978L22.8503 105.382L1.52583 98.9237L1.27815 94.04L21.8399 85.4576L22.0647 89.8919L18.1498 91.4722ZM14.8518 92.7809L6.25651 96.2507L15.1587 98.8331L14.8518 92.7809Z" fill="#FFA242"/>
<path d="M19.7496 81.3545L20.7944 74.534L24.086 75.0383L22.4052 86.0103L1.70663 82.8394L2.34263 78.6878L19.7496 81.3545Z" fill="#FFA242"/>
<path d="M9.66896 53.374L12.8479 54.5513L10.91 59.784L27.3675 65.8792L25.9088 69.8178L9.4513 63.7226L7.51333 68.9552L4.33435 67.7778L9.66896 53.374Z" fill="#FFA242"/>
<path d="M19.9061 36.3383L37.6767 47.4148L35.455 50.9791L27.8936 46.2661L23.1488 53.8784L30.7102 58.5915L28.4886 62.1558L10.7179 51.0793L12.9396 47.515L20.2464 52.0694L24.9912 44.457L17.6844 39.9026L19.9061 36.3383Z" fill="#FFA242"/>
<path d="M48.5099 19.4417C47.6132 18.9936 46.6888 18.8208 45.7365 18.9231C44.7843 19.0254 43.8486 19.3965 42.9293 20.0363C41.9116 20.7447 41.1687 21.6029 40.7007 22.6109C40.2326 23.619 40.0741 24.704 40.225 25.8661C40.3759 27.0282 40.8398 28.1673 41.6167 29.2836C42.4165 30.4326 43.3351 31.2797 44.3724 31.8248C45.4261 32.3585 46.5151 32.5753 47.6394 32.475C48.7637 32.3748 49.8593 31.9534 50.9263 31.2107C52.2395 30.2967 53.0748 29.2036 53.4321 27.9315C53.778 26.6429 53.6481 25.2835 53.0424 23.8531L47.1329 27.9663L45.2991 25.3316L54.6066 18.8534L56.6974 21.8574C57.3017 23.2157 57.5804 24.6665 57.5337 26.2098C57.4869 27.7531 57.0815 29.2537 56.3174 30.7115C55.5582 32.1415 54.4399 33.3706 52.9626 34.3989C51.3046 35.5529 49.5455 36.229 47.6853 36.4271C45.8301 36.5975 44.0541 36.2864 42.3571 35.4937C40.6765 34.6896 39.2478 33.4422 38.071 31.7514C36.8942 30.0607 36.2206 28.2877 36.0503 26.4325C35.8849 24.5494 36.21 22.7758 37.0255 21.1117C37.846 19.4197 39.077 18.0025 40.7185 16.8599C42.6555 15.5117 44.6694 14.8167 46.7602 14.7748C48.8396 14.7164 50.7442 15.3523 52.4742 16.6825L48.5099 19.4417Z" fill="#FFA242"/>
<path d="M65.2082 27.7448C63.407 28.5177 61.5715 28.8049 59.7016 28.6062C57.8317 28.4075 56.1362 27.753 54.6152 26.6429C53.0862 25.5144 51.9156 24.0036 51.1032 22.1106C50.2987 20.2359 50.0181 18.3649 50.2615 16.4976C50.4969 14.6119 51.1868 12.923 52.3311 11.4308C53.4754 9.93865 54.9481 8.80609 56.7493 8.03315C58.5688 7.25233 60.4043 6.9652 62.2558 7.17179C64.1257 7.37049 65.816 8.03803 67.3265 9.17443C68.8476 10.2846 70.0104 11.777 70.8149 13.6516C71.6272 15.5447 71.9157 17.4341 71.6802 19.3197C71.4553 21.1791 70.7706 22.8549 69.6264 24.3471C68.4821 25.8393 67.0094 26.9719 65.2082 27.7448ZM63.7294 24.2987C64.8872 23.8018 65.7969 23.1068 66.4582 22.2136C67.1117 21.302 67.4776 20.2527 67.5558 19.0656C67.634 17.8786 67.3971 16.6418 66.845 15.3553C66.2929 14.0687 65.5636 13.0541 64.6573 12.3113C63.743 11.5502 62.7344 11.1016 61.6313 10.9655C60.5283 10.8295 59.3978 11.0099 58.2399 11.5068C57.082 12.0037 56.1632 12.7027 55.4835 13.6038C54.8221 14.497 54.4523 15.5371 54.3741 16.7241C54.288 17.8928 54.521 19.1204 55.0731 20.407C55.6252 21.6935 56.3584 22.7173 57.2726 23.4785C58.1869 24.2396 59.1995 24.6974 60.3104 24.8518C61.4318 24.98 62.5715 24.7956 63.7294 24.2987Z" fill="#FFA242"/>
<path d="M81.9749 18.6207L73.8056 20.2996L73.257 24.4857L68.9373 25.3734L72.0919 3.31687L76.8818 2.33252L88.4789 21.3575L84.1298 22.2513L81.9749 18.6207ZM80.1818 15.559L75.4505 7.58824L74.2459 16.7789L80.1818 15.559Z" fill="#FFA242"/>
<path d="M92.3852 19.67L99.2852 19.67V23L88.1852 23V2.06L92.3852 2.06V19.67Z" fill="#FFA242"/>
<path d="M106.742 23.6752C105.312 23.3813 104.069 22.8707 103.014 22.1434C101.979 21.4202 101.222 20.5297 100.746 19.4721C100.269 18.4144 100.149 17.2567 100.387 15.9989L104.795 16.9047C104.681 17.7592 104.838 18.4857 105.266 19.0841C105.714 19.6866 106.408 20.0845 107.349 20.2777C108.308 20.475 109.109 20.4047 109.75 20.0669C110.395 19.7094 110.794 19.1585 110.947 18.414C111.072 17.8067 110.989 17.2689 110.697 16.8006C110.405 16.3323 109.998 15.932 109.474 15.5998C108.973 15.2519 108.262 14.8403 107.339 14.3647C106.087 13.6991 105.078 13.0937 104.312 12.5483C103.57 11.9874 102.974 11.2625 102.523 10.3737C102.097 9.4693 102.016 8.37061 102.282 7.07763C102.532 5.86301 103.053 4.86752 103.845 4.09116C104.638 3.3148 105.631 2.80426 106.824 2.55954C108.022 2.29523 109.326 2.30801 110.737 2.59788C112.853 3.03268 114.46 3.90411 115.559 5.21215C116.682 6.50462 117.123 8.08571 116.882 9.95541L112.356 9.02541C112.462 8.3121 112.277 7.67177 111.801 7.10443C111.35 6.52153 110.663 6.13547 109.742 5.94625C108.939 5.78119 108.25 5.85403 107.676 6.16478C107.121 6.47956 106.764 7.02877 106.603 7.81239C106.49 8.36093 106.571 8.85754 106.848 9.30223C107.147 9.73135 107.538 10.1178 108.018 10.4616C108.522 10.7898 109.234 11.2015 110.153 11.6967C111.405 12.3622 112.412 12.9775 113.174 13.5424C113.935 14.1074 114.54 14.844 114.986 15.7525C115.432 16.6609 115.524 17.7518 115.263 19.0252C115.037 20.1223 114.544 21.0826 113.782 21.9062C113.021 22.7298 112.033 23.3129 110.82 23.6556C109.61 23.9787 108.251 23.9852 106.742 23.6752Z" fill="#FFA242"/>
<path d="M138.591 33.889L131.746 29.1246L128.334 31.6111L124.714 29.0918L142.874 16.182L146.887 18.9755L141.088 40.4886L137.444 37.9522L138.591 33.889ZM139.575 30.48L142.092 21.5591L134.601 27.0181L139.575 30.48Z" fill="#FFA242"/>
<path d="M145.635 46.2041L148.366 37.2336L147.002 35.7985L141.088 41.4204L138.194 38.3763L153.371 23.9493L158.786 29.6462C159.902 30.8204 160.643 32.0204 161.008 33.2463C161.388 34.4583 161.415 35.6049 161.091 36.686C160.794 37.7678 160.211 38.7221 159.342 39.5488C158.342 40.4996 157.16 41.0709 155.797 41.2627C154.449 41.4407 153.078 41.1018 151.685 40.246L148.983 49.7266L145.635 46.2041ZM149.285 33.6282L151.703 36.1723C152.489 36.9985 153.27 37.4286 154.047 37.4624C154.839 37.4825 155.59 37.1549 156.3 36.4797C156.996 35.8183 157.339 35.1055 157.33 34.3414C157.336 33.5635 156.946 32.7614 156.161 31.9351L153.742 29.3911L149.285 33.6282Z" fill="#FFA242"/>
<path d="M166.073 44.3388L161.617 47.1159L165.346 53.0988L162.52 54.8603L158.791 48.8773L154.081 51.8131L158.287 58.5598L155.384 60.3689L148.957 50.0578L166.753 38.9655L173.18 49.2765L170.278 51.0856L166.073 44.3388Z" fill="#FFA242"/>
<path d="M161.749 81.967C161.453 80.0296 161.635 78.1807 162.296 76.4203C162.957 74.6599 164.015 73.1826 165.471 71.9883C166.947 70.7911 168.703 70.0364 170.739 69.7245C172.756 69.4156 174.637 69.6129 176.384 70.3166C178.15 71.0172 179.613 72.1083 180.77 73.5901C181.928 75.0719 182.655 76.7815 182.952 78.7189C183.252 80.676 183.07 82.5249 182.406 84.2656C181.745 86.026 180.675 87.4949 179.196 88.6724C177.74 89.8667 176.004 90.6182 173.987 90.9272C171.951 91.2391 170.05 91.0448 168.283 90.3442C166.54 89.6603 165.089 88.5775 163.931 87.0958C162.773 85.614 162.046 83.9044 161.749 81.967ZM165.456 81.3991C165.647 82.6446 166.092 83.6994 166.791 84.5635C167.509 85.4246 168.434 86.0418 169.563 86.4151C170.693 86.7883 171.949 86.869 173.333 86.657C174.717 86.445 175.882 85.9933 176.828 85.3021C177.794 84.6078 178.481 83.7438 178.89 82.7101C179.298 81.6763 179.406 80.5367 179.216 79.2913C179.025 78.0458 178.578 76.9811 177.877 76.0972C177.178 75.2331 176.263 74.6144 175.134 74.2411C174.024 73.8648 172.777 73.7827 171.393 73.9947C170.01 74.2067 168.835 74.6598 167.869 75.3541C166.903 76.0484 166.206 76.9139 165.778 77.9507C165.373 79.0042 165.265 80.1537 165.456 81.3991Z" fill="#FFA242"/>
<path d="M183.734 92.9331L170.791 92.2767C169.373 92.2048 168.266 92.5191 167.469 93.2197C166.693 93.9212 166.27 94.9411 166.202 96.2794C166.134 97.6377 166.45 98.7051 167.151 99.4816C167.873 100.259 168.943 100.684 170.361 100.756L183.304 101.412L183.09 105.637L170.177 104.982C168.399 104.892 166.911 104.426 165.712 103.584C164.532 102.763 163.665 101.688 163.112 100.358C162.558 99.0484 162.32 97.6045 162.4 96.0265C162.479 94.4685 162.861 93.0661 163.545 91.8191C164.228 90.5921 165.197 89.64 166.453 88.9627C167.729 88.2865 169.256 87.9935 171.034 88.0836L183.947 88.7385L183.734 92.9331Z" fill="#FFA242"/>
<path d="M159.654 112.978L168.712 110.55L169.208 108.634L161.309 106.588L162.362 102.522L182.633 107.771L180.663 115.38C180.257 116.948 179.63 118.212 178.783 119.17C177.955 120.133 176.997 120.763 175.908 121.059C174.833 121.38 173.715 121.39 172.553 121.09C171.217 120.744 170.107 120.043 169.223 118.988C168.359 117.938 167.922 116.595 167.911 114.96L158.436 117.682L159.654 112.978ZM172.258 109.423L171.378 112.821C171.092 113.925 171.141 114.815 171.523 115.493C171.925 116.175 172.6 116.639 173.549 116.885C174.478 117.126 175.265 117.04 175.908 116.628C176.571 116.221 177.046 115.466 177.332 114.363L178.211 110.965L172.258 109.423Z" fill="#FFA242"/>
<path d="M156.247 148.494C157.236 148.653 158.17 148.541 159.048 148.158C159.926 147.776 160.708 147.142 161.393 146.256C162.152 145.275 162.604 144.234 162.749 143.132C162.894 142.03 162.72 140.948 162.228 139.884C161.737 138.82 160.953 137.872 159.877 137.04C158.77 136.183 157.64 135.65 156.487 135.44C155.322 135.246 154.218 135.365 153.176 135.798C152.133 136.23 151.214 136.96 150.418 137.988C149.439 139.253 148.969 140.546 149.009 141.867C149.064 143.2 149.595 144.458 150.601 145.642L155.009 139.948L157.547 141.913L150.606 150.88L147.711 148.64C146.728 147.525 146.028 146.224 145.611 144.738C145.193 143.251 145.131 141.698 145.423 140.078C145.72 138.487 146.419 136.979 147.521 135.556C148.757 133.958 150.233 132.787 151.949 132.041C153.668 131.323 155.455 131.088 157.312 131.336C159.156 131.6 160.893 132.363 162.522 133.624C164.151 134.885 165.324 136.375 166.042 138.094C166.764 139.841 166.984 141.631 166.704 143.462C166.428 145.322 165.678 147.043 164.454 148.625C163.009 150.491 161.296 151.757 159.313 152.423C157.347 153.101 155.339 153.065 153.29 152.313L156.247 148.494Z" fill="#FFA242"/>
<path d="M137.829 145.57C139.316 144.294 140.981 143.47 142.825 143.1C144.668 142.73 146.482 142.847 148.266 143.451C150.062 144.07 151.632 145.161 152.973 146.724C154.302 148.272 155.13 149.973 155.457 151.827C155.797 153.697 155.644 155.515 154.999 157.281C154.354 159.048 153.288 160.569 151.8 161.846C150.298 163.136 148.633 163.959 146.804 164.316C144.961 164.686 143.148 164.555 141.367 163.923C139.583 163.319 138.027 162.244 136.698 160.696C135.356 159.133 134.515 157.416 134.175 155.547C133.833 153.705 133.985 151.901 134.63 150.135C135.275 148.369 136.341 146.847 137.829 145.57ZM140.271 148.416C139.315 149.237 138.655 150.172 138.292 151.222C137.941 152.288 137.906 153.398 138.187 154.554C138.468 155.71 139.064 156.82 139.976 157.882C140.888 158.944 141.887 159.694 142.974 160.131C144.075 160.584 145.171 160.71 146.264 160.509C147.358 160.309 148.382 159.798 149.338 158.978C150.294 158.157 150.962 157.215 151.341 156.152C151.704 155.102 151.746 153.998 151.465 152.842C151.197 151.702 150.607 150.6 149.696 149.538C148.784 148.475 147.778 147.718 146.677 147.266C145.577 146.813 144.474 146.679 143.368 146.865C142.259 147.078 141.227 147.595 140.271 148.416Z" fill="#FFA242"/>
<path d="M124.562 159.295L131.854 155.248L131.124 151.09L134.98 148.949L138.573 170.939L134.298 173.312L117.537 158.631L121.419 156.477L124.562 159.295ZM127.19 161.68L134.09 167.869L132.488 158.739L127.19 161.68Z" fill="#FFA242"/>
<path d="M114.774 162.315L108.19 164.38L107.193 161.203L117.784 157.88L124.053 177.86L120.046 179.117L114.774 162.315Z" fill="#FFA242"/>
<path d="M99.4176 161.887C100.87 161.74 102.209 161.855 103.433 162.233C104.638 162.613 105.626 163.236 106.397 164.102C107.169 164.969 107.63 166.038 107.779 167.309L103.302 167.764C103.155 166.915 102.788 166.269 102.2 165.826C101.593 165.385 100.811 165.213 99.8561 165.31C98.8811 165.41 98.1384 165.716 97.6278 166.231C97.1192 166.765 96.9034 167.41 96.9803 168.166C97.043 168.783 97.2836 169.271 97.7021 169.63C98.1206 169.99 98.6295 170.25 99.2288 170.41C99.8102 170.592 100.613 170.772 101.636 170.949C103.029 171.21 104.173 171.485 105.067 171.776C105.943 172.089 106.729 172.602 107.425 173.316C108.103 174.051 108.508 175.075 108.642 176.388C108.767 177.622 108.568 178.728 108.044 179.706C107.521 180.684 106.726 181.468 105.66 182.059C104.597 182.67 103.349 183.048 101.916 183.194C99.767 183.412 97.9724 183.062 96.532 182.143C95.0738 181.246 94.1799 179.869 93.8504 178.013L98.4467 177.546C98.5594 178.258 98.9275 178.814 99.551 179.213C100.157 179.633 100.927 179.796 101.862 179.701C102.678 179.618 103.313 179.343 103.768 178.874C104.203 178.408 104.381 177.777 104.3 176.981C104.243 176.424 104.016 175.974 103.62 175.633C103.205 175.313 102.717 175.061 102.156 174.877C101.576 174.715 100.774 174.535 99.7488 174.338C98.3553 174.077 97.2106 173.792 96.3145 173.481C95.4185 173.17 94.6216 172.648 93.9238 171.914C93.226 171.181 92.8114 170.168 92.6799 168.875C92.5666 167.76 92.7499 166.696 93.2298 165.683C93.7097 164.669 94.4774 163.817 95.533 163.127C96.5906 162.456 97.8855 162.043 99.4176 161.887Z" fill="#FFA242"/>
<path fill-rule="evenodd" clip-rule="evenodd" d="M120.1 66.7235L115.5 52L110.9 66.7235L102 70.9122L110.939 75.1196L115.5 88L120.061 75.1196L129 70.9122L120.1 66.7235ZM114.167 69.5159L115.5 65.2497L116.833 69.5159L119.8 70.9122L116.872 72.2902L115.5 76.1652L114.128 72.2902L111.2 70.9122L114.167 69.5159Z" fill="#FFA242"/>
<path fill-rule="evenodd" clip-rule="evenodd" d="M71.9982 118.505V118.999C71.9982 121.209 70.2077 123 67.9987 123H61.9995C59.7906 123 58 121.209 58 118.999V97.0025C58 94.7929 59.7906 93.0014 61.9995 93.0014H67.9987C69.8905 93.0014 71.4755 94.3154 71.8917 96.0808C74.5401 95.126 77.6335 93.9895 78.58 93.5578C79.3839 93.1915 80.3122 93.067 81.0835 93.0224C81.8946 92.9756 82.7361 93.008 83.4724 93.065C84.2151 93.1225 84.8892 93.2083 85.376 93.2791C85.6203 93.3147 85.8203 93.3469 85.9613 93.3705C86.0319 93.3825 86.0879 93.3921 86.1275 93.3993L86.1745 93.4077L86.1883 93.4103L86.1955 93.4115L86.2313 93.4183L99.6072 96.4201L99.6908 96.4469L99.7136 96.4539L99.8057 96.4821C99.8899 96.5075 100.018 96.5449 100.182 96.5906C100.513 96.6822 100.987 96.8056 101.553 96.929C102.703 97.1799 104.151 97.4142 105.502 97.4142C106.749 97.4142 108.04 97.8793 108.73 99.1434C109.322 100.229 109.184 101.42 108.963 102.246C108.686 103.273 108.115 104.354 107.387 105.272C108.369 104.902 109.441 104.463 110.593 103.99L110.839 103.889C114.085 102.557 117.933 100.977 121.328 100.415C125.207 99.7734 128.03 101.182 129.31 103.681C130.449 105.905 130.184 108.825 128.47 110.584C128.039 111.025 127.384 111.489 126.725 111.916C126.022 112.372 125.156 112.888 124.194 113.434C122.266 114.527 119.88 115.784 117.485 117C112.742 119.406 107.769 121.747 106.189 122.325C104.358 122.996 102.392 123.06 100.5 122.962C99.47 122.909 98.2731 122.79 97.0835 122.672C96.224 122.586 95.3685 122.501 94.5824 122.442C90.7273 122.15 87.7685 121.208 85.043 120.341L84.7116 120.236C81.8968 119.342 79.2781 118.549 75.8086 118.409C75.0153 118.377 73.4313 118.436 71.9982 118.505ZM80.2388 97.1985C80.367 97.1401 80.7069 97.0521 81.3141 97.0169C81.8812 96.9841 82.5283 97.0049 83.1638 97.0541C83.793 97.1029 84.3745 97.1765 84.8002 97.2383C85.0118 97.2691 85.1824 97.2967 85.2978 97.3161C85.3556 97.3259 85.3992 97.3335 85.4274 97.3385L85.4318 97.3393L98.5651 100.287L98.6553 100.314C98.7645 100.347 98.9199 100.392 99.1142 100.446C99.5024 100.554 100.05 100.696 100.701 100.838C101.871 101.094 103.439 101.363 105.037 101.409C104.923 101.732 104.73 102.114 104.469 102.494C104.149 102.958 103.799 103.317 103.511 103.523C102.678 104.118 102.006 104.367 101.598 104.473C101.391 104.527 101.246 104.545 101.174 104.552L101.147 104.554L101.132 104.555L90.4089 104.425L90.0262 108.394L90.3847 106.425L90.0282 108.394L90.1346 108.413L90.4395 108.468C90.7035 108.515 91.0836 108.583 91.551 108.665C92.4849 108.829 93.7677 109.049 95.1625 109.276C97.911 109.724 101.224 110.221 103.103 110.334C104.401 110.413 105.913 110.014 107.319 109.545C108.786 109.055 110.444 108.376 112.111 107.692C115.545 106.283 119.042 104.849 121.98 104.363C124.521 103.942 125.425 104.871 125.75 105.505C126.216 106.414 125.962 107.425 125.606 107.791C125.519 107.88 125.204 108.134 124.549 108.559C123.938 108.955 123.148 109.427 122.221 109.953C120.369 111.004 118.043 112.23 115.676 113.431C110.894 115.858 106.133 118.085 104.814 118.568C103.746 118.96 102.425 119.055 100.706 118.967C99.6904 118.914 98.7269 118.816 97.6764 118.709C96.8273 118.623 95.9212 118.531 94.8846 118.452C91.5014 118.196 88.9293 117.378 86.1731 116.502L85.9219 116.422C83.067 115.516 80.0122 114.574 75.9695 114.412C75.0595 114.375 73.4393 114.431 71.9982 114.499V100.294C74.8089 99.2877 78.9716 97.7765 80.2388 97.1985ZM85.8289 95.3782L86.1955 93.4115C86.1959 93.4117 86.1955 93.4115 85.8289 95.3782ZM67.9987 97.0025H61.9995V118.999H67.9987V97.0025Z" fill="#FFA242"/>
<path d="M84 71.6L86 64L88 71.6L94 73.5L88 75.4L86 83L84 75.4L78 73.5L84 71.6Z" fill="#FFA242"/>
</svg>
